<svg width="49" height="49" viewBox="0 0 49 49" fill="none" xmlns="http://www.w3.org/2000/svg">
<g clip-path="url(#clip0_3401_18032)">
<g clip-path="url(#clip1_3401_18032)">
<path d="M18.9614 22.5994C23.3847 22.5994 26.9706 19.0136 26.9706 14.5902C26.9706 10.1669 23.3847 6.58102 18.9614 6.58102C14.538 6.58102 10.9521 10.1669 10.9521 14.5902C10.9521 19.0136 14.538 22.5994 18.9614 22.5994Z" stroke="#4AC7ED" stroke-width="3.06362" stroke-linecap="round" stroke-linejoin="round"/>
<path d="M6.94751 42.6225V38.6178C6.94751 36.4937 7.79133 34.4565 9.29335 32.9545C10.7954 31.4525 12.8325 30.6086 14.9567 30.6086H22.9659C25.0901 30.6086 27.1273 31.4525 28.6293 32.9545C30.1313 34.4565 30.9751 36.4937 30.9751 38.6178V42.6225" stroke="#4AC7ED" stroke-width="3.06362" stroke-linecap="round" stroke-linejoin="round"/>
<path d="M32.9775 6.84132C34.7003 7.28243 36.2273 8.28438 37.3178 9.68922C38.4083 11.0941 39.0001 12.8219 39.0001 14.6002C39.0001 16.3786 38.4083 18.1064 37.3178 19.5113C36.2273 20.9161 34.7003 21.9181 32.9775 22.3592" stroke="#4AC7ED" stroke-width="3.06362" stroke-linecap="round" stroke-linejoin="round"/>
<path d="M42.9891 42.6224V38.6178C42.9789 36.8501 42.3842 35.1354 41.2977 33.741C40.2111 32.3466 38.6938 31.3509 36.9822 30.909" stroke="#4AC7ED" stroke-width="3.06" stroke-linecap="round" stroke-linejoin="round"/>
</g>
</g>
<defs>
<clipPath id="clip0_3401_18032">
<rect width="48.0552" height="48.0552" fill="white" transform="translate(0.940674 0.574112)"/>
</clipPath>
<clipPath id="clip1_3401_18032">
<rect width="48.0552" height="48.0552" fill="white" transform="translate(0.940674 0.574112)"/>
</clipPath>
</defs>
</svg>
