<svg width="49" height="49" viewBox="0 0 49 49" fill="none" xmlns="http://www.w3.org/2000/svg">
<g clip-path="url(#clip0_3401_18014)">
<g clip-path="url(#clip1_3401_18014)">
<path d="M16.6764 12.5879H11.0019C9.92656 12.5879 8.89524 13.0151 8.13485 13.7755C7.37445 14.5359 6.94727 15.5672 6.94727 16.6426V22.3171C6.94727 23.3923 7.37376 24.4235 8.13463 25.1844L20.3807 37.4305C20.7572 37.8071 21.2042 38.1058 21.6962 38.3096C22.1882 38.5134 22.7155 38.6183 23.248 38.6183C23.7805 38.6183 24.3078 38.5134 24.7998 38.3096C25.2918 38.1058 25.7388 37.8071 26.1153 37.4305L31.7898 31.756C32.1664 31.3794 32.4651 30.9324 32.6689 30.4405C32.8727 29.9485 32.9776 29.4212 32.9776 28.8887C32.9776 28.3561 32.8727 27.8288 32.6689 27.3369C32.4651 26.8449 32.1664 26.3979 31.7898 26.0214L19.5417 13.7753C18.7817 13.0154 17.7512 12.5883 16.6764 12.5879Z" stroke="#4AC7ED" stroke-width="3.06362" stroke-linecap="round" stroke-linejoin="round"/>
<path d="M36.1266 37.4305L41.8012 31.756C42.1777 31.3795 42.4765 30.9325 42.6803 30.4405C42.8841 29.9485 42.989 29.4212 42.989 28.8887C42.989 28.3562 42.8841 27.8289 42.6803 27.3369C42.4765 26.8449 42.1777 26.3979 41.8012 26.0214L27.5508 11.773" stroke="#4AC7ED" stroke-width="3.06362" stroke-linecap="round" stroke-linejoin="round"/>
<path d="M12.9541 18.5948H12.9341" stroke="#4AC7ED" stroke-width="3.06362" stroke-linecap="round" stroke-linejoin="round"/>
</g>
</g>
<defs>
<clipPath id="clip0_3401_18014">
<rect width="48.0552" height="48.0552" fill="white" transform="translate(0.94043 0.574112)"/>
</clipPath>
<clipPath id="clip1_3401_18014">
<rect width="48.0552" height="48.0552" fill="white" transform="translate(0.94043 0.574112)"/>
</clipPath>
</defs>
</svg>
