<svg width="49" height="49" viewBox="0 0 49 49" fill="none" xmlns="http://www.w3.org/2000/svg">
<g clip-path="url(#clip0_3401_18155)">
<g clip-path="url(#clip1_3401_18155)">
<path d="M38.0822 22.5993V16.5924C38.0822 15.5303 37.6603 14.5117 36.9093 13.7607C36.1583 13.0097 35.1397 12.5878 34.0776 12.5878H10.05C8.98793 12.5878 7.96934 13.0097 7.21833 13.7607C6.46732 14.5117 6.04541 15.5303 6.04541 16.5924V26.6039C6.04541 27.666 6.46732 28.6846 7.21833 29.4356C7.96934 30.1866 8.98793 30.6085 10.05 30.6085H20.0615" stroke="#4AC7ED" stroke-width="3.06362" stroke-linecap="round" stroke-linejoin="round"/>
<path d="M31.0744 36.6154C33.839 36.6154 36.0801 34.3743 36.0801 31.6097C36.0801 28.8451 33.839 26.6039 31.0744 26.6039C28.3098 26.6039 26.0686 28.8451 26.0686 31.6097C26.0686 34.3743 28.3098 36.6154 31.0744 36.6154Z" stroke="#4AC7ED" stroke-width="3.06" stroke-linecap="round" stroke-linejoin="round"/>
<path d="M35.0789 35.6142L40.0846 40.6199" stroke="#4AC7ED" stroke-width="3.06" stroke-linecap="round" stroke-linejoin="round"/>
</g>
</g>
<defs>
<clipPath id="clip0_3401_18155">
<rect width="48.0552" height="48.0552" fill="white" transform="translate(0.0385742 0.573944)"/>
</clipPath>
<clipPath id="clip1_3401_18155">
<rect width="48.0552" height="48.0552" fill="white" transform="translate(0.0385742 0.573944)"/>
</clipPath>
</defs>
</svg>
