<svg width="49" height="49" viewBox="0 0 49 49" fill="none" xmlns="http://www.w3.org/2000/svg">
<g clip-path="url(#clip0_3401_18071)">
<g clip-path="url(#clip1_3401_18071)">
<path d="M42.0868 42.1715L30.073 30.1577" stroke="#4AC7ED" stroke-width="3.06362" stroke-linecap="round" stroke-linejoin="round"/>
<path d="M6.62817 16.1476C7.3306 13.7933 8.63951 11.6651 10.4237 9.97613C12.2079 8.28718 14.4047 7.09688 16.7939 6.52452C20.1472 5.71291 23.6819 6.16278 26.725 7.78846C29.7681 9.41414 32.1072 12.1021 33.2968 15.3406" stroke="#4AC7ED" stroke-width="3.06" stroke-linecap="round" stroke-linejoin="round"/>
<path d="M34.0778 8.13233V16.1415H26.0686" stroke="#4AC7ED" stroke-width="3.06" stroke-linecap="round" stroke-linejoin="round"/>
<path d="M33.4871 24.1608C32.7827 26.5113 31.4737 28.6358 29.6908 30.3217C27.9079 32.0076 25.7136 33.1959 23.3274 33.7678C19.9744 34.5789 16.4402 34.1287 13.3975 32.5031C10.3548 30.8775 8.01606 28.1898 6.82642 24.9517" stroke="#4AC7ED" stroke-width="3.06" stroke-linecap="round" stroke-linejoin="round"/>
<path d="M6.04541 32.16V24.1508H14.0546" stroke="#4AC7ED" stroke-width="3.06" stroke-linecap="round" stroke-linejoin="round"/>
</g>
</g>
<defs>
<clipPath id="clip0_3401_18071">
<rect width="48.0552" height="48.0552" fill="white" transform="translate(0.0385742 0.123154)"/>
</clipPath>
<clipPath id="clip1_3401_18071">
<rect width="48.0552" height="48.0552" fill="white" transform="translate(0.0385742 0.123154)"/>
</clipPath>
</defs>
</svg>
