<svg width="49" height="49" viewBox="0 0 49 49" fill="none" xmlns="http://www.w3.org/2000/svg">
<g clip-path="url(#clip0_3401_18103)">
<g clip-path="url(#clip1_3401_18103)">
<path d="M20.0615 34.6132C27.8024 34.6132 34.0776 28.338 34.0776 20.5971C34.0776 12.8562 27.8024 6.58096 20.0615 6.58096C12.3206 6.58096 6.04541 12.8562 6.04541 20.5971C6.04541 28.338 12.3206 34.6132 20.0615 34.6132Z" stroke="#4AC7ED" stroke-width="3.06362" stroke-linecap="round" stroke-linejoin="round"/>
<path d="M42.0868 42.6224L30.073 30.6086" stroke="#4AC7ED" stroke-width="3.06362" stroke-linecap="round" stroke-linejoin="round"/>
<path d="M20.0615 26.604V26.624" stroke="#4AC7ED" stroke-width="3.06362" stroke-linecap="round" stroke-linejoin="round"/>
<path d="M20.0614 20.597C20.5654 20.5973 21.0614 20.4707 21.5036 20.229C21.9458 19.9872 22.3201 19.6381 22.592 19.2137C22.8638 18.7893 23.0245 18.3034 23.0593 17.8006C23.094 17.2978 23.0016 16.7944 22.7907 16.3366C22.5798 15.8789 22.2571 15.4816 21.8523 15.1814C21.4476 14.8811 20.9737 14.6875 20.4745 14.6185C19.9753 14.5494 19.4667 14.6071 18.9956 14.7862C18.5245 14.9653 18.1061 15.2601 17.7788 15.6433" stroke="#4AC7ED" stroke-width="3.06" stroke-linecap="round" stroke-linejoin="round"/>
</g>
</g>
<defs>
<clipPath id="clip0_3401_18103">
<rect width="48.0552" height="48.0552" fill="white" transform="translate(0.0385742 0.574051)"/>
</clipPath>
<clipPath id="clip1_3401_18103">
<rect width="48.0552" height="48.0552" fill="white" transform="translate(0.0385742 0.574051)"/>
</clipPath>
</defs>
</svg>
