<svg width="49" height="49" viewBox="0 0 49 49" fill="none" xmlns="http://www.w3.org/2000/svg">
<g clip-path="url(#clip0_3401_18194)">
<g clip-path="url(#clip1_3401_18194)">
<path d="M18.0593 30.6085V20.8473C18.0593 20.2498 18.2967 19.6769 18.7191 19.2544C19.1415 18.832 19.7145 18.5947 20.3119 18.5947H27.8205C28.418 18.5947 28.9909 18.832 29.4134 19.2544C29.8358 19.6769 30.0731 20.2498 30.0731 20.8473V25.3524C30.0731 25.9499 29.8358 26.5228 29.4134 26.9453C28.9909 27.3677 28.418 27.605 27.8205 27.605H21.0628L18.0593 30.6085Z" stroke="#212121" stroke-width="1.83817" stroke-linecap="round" stroke-linejoin="round"/>
<path d="M22.189 22.7244H22.1988" stroke="#212121" stroke-width="1.22545" stroke-linecap="round" stroke-linejoin="round"/>
<path d="M26.3191 22.7244H26.3289" stroke="#212121" stroke-width="1.22545" stroke-linecap="round" stroke-linejoin="round"/>
<path d="M20.0615 10.5854L24.0661 6.58084L28.0707 10.5854" stroke="#4AC7ED" stroke-width="3.06362" stroke-linecap="round" stroke-linejoin="round"/>
<path d="M38.0823 20.597L42.0869 24.6016L38.0823 28.6062" stroke="#4AC7ED" stroke-width="2.4509" stroke-linecap="round" stroke-linejoin="round"/>
<path d="M10.05 20.597L6.04541 24.6016L10.05 28.6062" stroke="#4AC7ED" stroke-width="2.4509" stroke-linecap="round" stroke-linejoin="round"/>
<path d="M20.0615 38.6177L24.0661 42.6223L28.0707 38.6177" stroke="#4AC7ED" stroke-width="2.4509" stroke-linecap="round" stroke-linejoin="round"/>
</g>
</g>
<defs>
<clipPath id="clip0_3401_18194">
<rect width="48.0552" height="48.0552" fill="white" transform="translate(0.0385742 0.573944)"/>
</clipPath>
<clipPath id="clip1_3401_18194">
<rect width="48.0552" height="48.0552" fill="white" transform="translate(0.0385742 0.573944)"/>
</clipPath>
</defs>
</svg>
