<svg width="20" height="20" viewBox="0 0 20 20" fill="none" xmlns="http://www.w3.org/2000/svg">
<g clip-path="url(#clip0_2221_155)">
<path d="M6.66667 10H3.33333C2.8731 10 2.5 10.3731 2.5 10.8333V15.8333C2.5 16.2936 2.8731 16.6667 3.33333 16.6667H6.66667C7.1269 16.6667 7.5 16.2936 7.5 15.8333V10.8333C7.5 10.3731 7.1269 10 6.66667 10Z" stroke="#4582C4" stroke-width="2" stroke-linecap="round" stroke-linejoin="round"/>
<path d="M11.6667 6.66699H8.33333C7.8731 6.66699 7.5 7.04009 7.5 7.50033V15.8337C7.5 16.2939 7.8731 16.667 8.33333 16.667H11.6667C12.1269 16.667 12.5 16.2939 12.5 15.8337V7.50033C12.5 7.04009 12.1269 6.66699 11.6667 6.66699Z" stroke="#4582C4" stroke-width="2" stroke-linecap="round" stroke-linejoin="round"/>
<path d="M16.6667 3.33301H13.3333C12.8731 3.33301 12.5 3.7061 12.5 4.16634V15.833C12.5 16.2932 12.8731 16.6663 13.3333 16.6663H16.6667C17.1269 16.6663 17.5 16.2932 17.5 15.833V4.16634C17.5 3.7061 17.1269 3.33301 16.6667 3.33301Z" stroke="#4582C4" stroke-width="2" stroke-linecap="round" stroke-linejoin="round"/>
<path d="M3.33337 16.667H15" stroke="#4582C4" stroke-width="2" stroke-linecap="round" stroke-linejoin="round"/>
</g>
<defs>
<clipPath id="clip0_2221_155">
<rect width="20" height="20" fill="white"/>
</clipPath>
</defs>
</svg>
