<svg width="20" height="20" viewBox="0 0 20 20" fill="none" xmlns="http://www.w3.org/2000/svg">
<g clip-path="url(#clip0_2221_7751)">
<path d="M2.5 2.5V17.5H17.5" stroke="#4582C4" stroke-width="2" stroke-linecap="round" stroke-linejoin="round"/>
<path d="M7.49992 9.16634C8.42039 9.16634 9.16659 8.42015 9.16659 7.49967C9.16659 6.5792 8.42039 5.83301 7.49992 5.83301C6.57944 5.83301 5.83325 6.5792 5.83325 7.49967C5.83325 8.42015 6.57944 9.16634 7.49992 9.16634Z" stroke="#4582C4" stroke-width="2" stroke-linecap="round" stroke-linejoin="round"/>
<path d="M15.8334 7.50033C16.7539 7.50033 17.5001 6.75413 17.5001 5.83366C17.5001 4.91318 16.7539 4.16699 15.8334 4.16699C14.9129 4.16699 14.1667 4.91318 14.1667 5.83366C14.1667 6.75413 14.9129 7.50033 15.8334 7.50033Z" stroke="#4582C4" stroke-width="2" stroke-linecap="round" stroke-linejoin="round"/>
<path d="M11.6667 14.1663C12.5871 14.1663 13.3333 13.4201 13.3333 12.4997C13.3333 11.5792 12.5871 10.833 11.6667 10.833C10.7462 10.833 10 11.5792 10 12.4997C10 13.4201 10.7462 14.1663 11.6667 14.1663Z" stroke="#4582C4" stroke-width="2" stroke-linecap="round" stroke-linejoin="round"/>
<path d="M8.46655 8.84961L10.4166 11.2496" stroke="#4582C4" stroke-width="2" stroke-linecap="round" stroke-linejoin="round"/>
<path d="M12.5732 11.1068L14.9374 7.28516" stroke="#4582C4" stroke-width="2" stroke-linecap="round" stroke-linejoin="round"/>
</g>
<defs>
<clipPath id="clip0_2221_7751">
<rect width="20" height="20" fill="white"/>
</clipPath>
</defs>
</svg>
